<svg width="90" height="90" viewBox="0 0 90 90" fill="none" xmlns="http://www.w3.org/2000/svg">
<path d="M37.605 32.9102C37.8622 32.7099 38.148 32.5389 38.4337 32.3672C37.8337 32.6814 37.2907 33.0534 36.8332 33.5679C36.6045 33.8252 36.4042 34.1109 36.2332 34.4252C36.6337 33.8537 37.0905 33.3392 37.605 32.9102Z" fill="#203B72"/>
<path d="M55.0688 55.6034V55.5464C55.0688 55.5749 55.0403 55.6034 55.0688 55.6034Z" fill="#203B72"/>
<path d="M58.413 15.0181H46.9515C44.5223 15.3038 41.9498 15.7898 40.149 17.4473C39.006 18.4763 38.2343 19.9336 37.8623 21.4201C37.491 22.9351 37.4618 24.5071 37.605 26.0506C37.6905 26.8223 37.8053 27.5941 38.0055 28.3088C38.1488 28.8518 38.7773 29.7376 38.4345 30.3098C38.3775 30.3953 38.2913 30.4816 38.2343 30.5386C37.4055 31.2533 36.5483 31.9388 35.9475 32.8823C35.2613 33.9683 34.9755 35.2831 35.0333 36.4838C35.0333 37.0268 35.0903 37.5413 35.1765 38.0558C35.1765 38.1413 35.205 38.1991 35.205 38.2846C35.2905 36.7411 35.6625 35.4548 36.291 34.4258C36.4628 34.1116 36.6623 33.8258 36.891 33.5686C37.3485 33.0256 37.863 32.6828 38.4915 32.3678C39.8348 31.5961 41.4353 31.2533 42.9503 31.1101C44.7225 30.9098 46.4948 30.8813 48.2663 30.9961C49.695 31.0816 51.753 31.0246 52.8968 31.9681C53.5545 32.5111 54.0398 33.4831 54.0683 34.3403C54.0683 34.4258 54.0968 35.6551 54.0968 35.7983C54.0968 36.8843 53.211 37.7993 52.0958 37.7993H40.806V42.0578C43.9215 42.4868 46.4655 42.9151 48.3803 43.3726C48.609 43.4296 48.8378 43.4866 49.0665 43.5443C50.553 43.9156 51.7245 44.3731 52.611 44.8876C52.7543 44.8021 52.9538 44.7443 53.1255 44.7158C56.4128 44.1728 58.956 41.0858 59.9565 38.0273C60.2423 37.1416 60.3855 36.2266 60.414 35.2838C60.4425 33.3113 59.8425 31.2826 58.6418 29.6821C57.327 27.9668 55.4693 27.1096 53.3828 26.9093C52.0395 26.7661 49.6103 26.7953 48.324 26.5666C46.8953 26.3093 44.9798 25.6231 44.9513 23.9086C44.9228 22.7941 45.8948 21.8791 46.9808 21.8791C48.5243 21.8791 50.0963 21.9076 51.6398 21.9076L58.2705 22.1933C60.3 22.2788 62.0145 20.6498 62.0145 18.5918C62.0145 16.6193 60.414 15.0181 58.413 15.0181Z" fill="#0A9CA5"/>
<path d="M55.4115 53.4602C55.383 53.6889 55.3545 53.9462 55.326 54.1749C55.269 54.6324 55.1828 55.0892 55.0688 55.5467C55.0688 55.5752 55.0403 55.6037 55.0403 55.6322C55.0118 55.7462 54.9833 55.8324 54.9548 55.9464C54.3833 57.6902 53.211 58.9187 51.6968 59.9192C51.5535 60.0332 51.3825 60.0909 51.2678 60.2334C51.039 60.5192 51.3533 60.7479 51.468 61.0052C51.6113 61.3479 51.8108 61.6914 51.897 62.0342C52.0403 62.4917 52.1258 62.9484 52.2113 63.4059C52.6688 66.4644 51.9825 69.8942 49.782 72.1517C49.6388 72.2949 49.4963 72.4374 49.353 72.5807C46.9808 74.7242 43.6935 74.9244 40.578 74.9814H31.689C29.6595 74.9814 28.002 73.3239 28.002 71.2944C28.002 69.2649 29.6595 67.6074 31.689 67.6074H41.2643C42.3788 67.6074 43.3223 66.6932 43.2938 65.5779C43.2938 65.0349 43.0935 64.5774 42.6938 64.2062C42.2648 63.8057 41.6363 63.8349 41.0933 63.8057C37.3493 63.5769 33.2903 63.9489 30.432 61.0622C30.3465 60.9767 30.2318 60.8619 30.1463 60.7764C26.5163 56.7466 27.4028 47.8862 33.2618 46.3142C34.8053 45.9137 36.4058 45.8852 37.8638 45.3999C37.9208 45.4284 37.9778 45.4569 38.0355 45.4854C38.0925 45.5139 38.1495 45.5424 38.1788 45.5709C38.2358 45.5994 38.2643 45.6279 38.322 45.6564C38.4075 45.6849 38.4938 45.7419 38.5793 45.7704C38.6363 45.7989 38.6933 45.8274 38.751 45.8274C38.8365 45.8559 38.8943 45.8844 38.9798 45.9129C39.0368 45.9414 39.0938 45.9699 39.18 45.9984C39.237 46.0269 39.3233 46.0554 39.4088 46.0839C39.4943 46.1124 39.552 46.1409 39.6375 46.1694C39.8093 46.2264 39.9803 46.2834 40.1805 46.3412C40.2945 46.3697 40.4093 46.3982 40.4948 46.4267C40.5518 46.4267 40.5803 46.4552 40.638 46.4552C40.7235 46.4837 40.8098 46.5121 40.8953 46.5121C41.067 46.5691 41.238 46.5977 41.4098 46.6554C41.61 46.7124 41.8388 46.7694 42.0675 46.7986C44.04 47.2276 46.6695 47.6844 49.9845 48.1419V51.8289C49.7273 51.9429 49.47 52.0007 49.1843 52.0007H37.2653C36.4365 52.0862 35.865 52.7439 35.5793 53.5156C35.5508 53.6297 35.4938 53.7444 35.4653 53.8584C35.2365 54.7727 35.265 55.8594 35.6085 56.7737C35.637 56.8307 35.6655 56.9169 35.694 56.9739C35.7225 57.0309 35.751 57.0879 35.7795 57.1457C35.808 57.2312 35.865 57.2889 35.9228 57.3744C35.9513 57.4029 35.9513 57.4314 35.9798 57.4599C36.0083 57.4884 36.0083 57.5169 36.0368 57.5454C36.0938 57.6309 36.1508 57.6887 36.2085 57.7457C36.237 57.7742 36.294 57.8312 36.3225 57.8889C36.3795 57.9459 36.4658 58.0322 36.5228 58.0892C36.5798 58.1177 36.6083 58.1747 36.6368 58.2031C36.7223 58.2601 36.8085 58.3172 36.894 58.3749C36.9225 58.4034 36.9795 58.4319 37.008 58.4604C37.1513 58.5459 37.2653 58.6037 37.4085 58.6607C38.4375 59.0897 39.5805 59.1466 40.6958 59.3184C41.8965 59.4901 43.125 59.5472 44.3258 59.5472C45.6975 59.5472 47.0693 59.4902 48.4418 59.2899C49.242 59.1759 50.2425 59.0042 51.0713 58.6614C51.6428 58.4612 52.1003 58.2902 52.329 58.1469C52.4723 58.0614 52.6148 57.9752 52.7295 57.8897C53.3873 57.4321 53.901 56.8036 54.3015 56.0889C54.387 55.9456 54.4448 55.8032 54.5303 55.6599C54.8445 54.9737 55.0733 54.2312 55.2165 53.5164C55.2735 53.2877 55.302 53.0589 55.3305 52.8587C55.359 52.7447 55.3875 52.6299 55.416 52.5444V52.5159C55.4445 52.4019 55.5015 52.2872 55.5015 52.2017C55.4445 52.5444 55.473 53.0019 55.416 53.4594L55.4115 53.4602Z" fill="#203B72"/>
<path d="M37.8908 45.3711C38.7481 45.8571 39.9203 46.2853 41.3776 46.6288C39.8911 46.2861 38.7481 45.8571 37.8908 45.3711Z" fill="white"/>
<path d="M36.2902 57.8332C36.2617 57.8047 36.2047 57.7477 36.1762 57.6899C36.2047 57.7469 36.2332 57.8039 36.2902 57.8332Z" fill="white"/>
<path d="M36.0044 57.5192C35.9759 57.4622 35.9474 57.4337 35.8904 57.376C35.9189 57.4045 35.9189 57.433 35.9474 57.4615C35.9474 57.4615 35.9759 57.49 36.0044 57.5185V57.5192Z" fill="white"/>
<path d="M35.6903 56.9761C35.7188 57.0331 35.7473 57.0901 35.7758 57.1193C35.7473 57.0623 35.7188 57.0338 35.6903 56.9761Z" fill="white"/>
<path d="M49.0665 43.5419C48.8378 43.4849 48.609 43.4279 48.3803 43.3701C48.609 43.4271 48.8378 43.4841 49.0665 43.5419Z" fill="white"/>
</svg>
