<svg xmlns="http://www.w3.org/2000/svg" width="52.909" height="93.247" viewBox="0 0 52.909 93.247">
  <g id="Group_1873" data-name="Group 1873" transform="translate(-13.847 -14.35)">
    <path id="Path_3689" data-name="Path 3689" d="M65.434,14.35H47.6c-3.794.466-7.768,1.184-10.587,3.766a12.373,12.373,0,0,0-3.586,6.2,21.131,21.131,0,0,0-.4,7.173,19.762,19.762,0,0,0,.631,3.536c.237.854,1.184,2.209.681,3.106a1.435,1.435,0,0,1-.316.359,16.706,16.706,0,0,0-3.586,3.665A9.92,9.92,0,0,0,29,47.747a22.952,22.952,0,0,0,.208,2.446,1.082,1.082,0,0,0,.036.344,12.359,12.359,0,0,1,1.707-6.011,7.388,7.388,0,0,1,3.436-3.17A17.932,17.932,0,0,1,41.3,39.383a49.543,49.543,0,0,1,8.249-.179c2.209.143,5.408.065,7.216,1.535a5.229,5.229,0,0,1,1.808,3.68c0,.115.036,2.066.036,2.274a3.1,3.1,0,0,1-3.077,3.084h-17.5v6.642q7.273.99,11.764,2.03l1.076.265a23.269,23.269,0,0,1,5.509,2.08,1.887,1.887,0,0,1,.775-.244c5.114-.861,9.059-5.667,10.6-10.394a14.446,14.446,0,0,0,.717-4.254,14.217,14.217,0,0,0-2.754-8.722,11.276,11.276,0,0,0-8.191-4.3c-2.023-.208-5.824-.179-7.826-.531-2.224-.395-5.215-1.435-5.258-4.153a3.17,3.17,0,0,1,3.2-3.163c2.417,0,4.842.065,7.259.057l10.307.43a5.595,5.595,0,0,0,5.824-5.588h0a5.58,5.58,0,0,0-5.6-5.58Z" transform="translate(-4.28 0)" fill="#fff"/>
    <path id="Path_3690" data-name="Path 3690" d="M56.5,92.738a8.6,8.6,0,0,1-.136,1.1,17.027,17.027,0,0,1-.423,2.152.954.954,0,0,1,0,.136c-.043.165-.079.33-.129.5a11.744,11.744,0,0,1-5.071,6.176,2.668,2.668,0,0,0-.66.488c-.366.459.129.8.3,1.191a12.912,12.912,0,0,1,.717,1.585,14.769,14.769,0,0,1,.473,2.152c.717,4.77-.38,10.042-3.787,13.578-.215.222-.445.438-.667.653-3.694,3.35-8.8,3.622-13.628,3.744H19.595a5.738,5.738,0,0,1,0-11.477h14.9a3.12,3.12,0,0,0,3.135-3.12,2.819,2.819,0,0,0-.911-2.152,3.849,3.849,0,0,0-2.5-.638c-5.824-.373-12.122.222-16.591-4.3-.151-.151-.287-.3-.416-.452-5.624-6.255-4.3-20.034,4.849-22.473,2.381-.638,4.878-.653,7.173-1.435l.258.143h0l.244.122h0l.23.115.395.179.244.108.344.143a2.432,2.432,0,0,0,.294.108c.108.05.215.086.337.129l.344.122c.265.093.545.186.832.273l.509.143a2,2,0,0,0,.222.065l.38.1c.251.072.516.143.782.2s.667.165,1.019.23q4.583,1.019,12.294,2.094v5.738a2.955,2.955,0,0,1-1.234.273H28.546a2.153,2.153,0,0,0-.3,0h0a3.292,3.292,0,0,0-2.618,2.346,5.136,5.136,0,0,0-.165.538,7.768,7.768,0,0,0,.23,4.533c.05.108.086.208.136.316s.079.158.122.244l.208.351s.043.079.072.122a1.132,1.132,0,0,1,.086.108c.086.115.172.222.265.33l.179.2.316.3.194.165c.129.093.258.186.395.273a1.483,1.483,0,0,0,.172.122,5.5,5.5,0,0,0,.617.308,23.2,23.2,0,0,0,5.1,1.011,38.268,38.268,0,0,0,5.659.366,44.012,44.012,0,0,0,6.377-.409,17.494,17.494,0,0,0,4.1-.961,9.827,9.827,0,0,0,1.937-.8c.208-.136.43-.251.638-.409a8.45,8.45,0,0,0,2.446-2.8c.115-.215.237-.438.337-.66a13.887,13.887,0,0,0,1.076-3.357c.072-.344.115-.717.186-1.033a2.255,2.255,0,0,1,.115-.509,2.7,2.7,0,0,0,.122-.516C56.535,91.333,56.564,92.035,56.5,92.738Z" transform="translate(0 -18.602)" fill="#fff"/>
  </g>
</svg>
